<svg width="1024" height="1024" viewBox="0 0 1024 1024" fill="none" xmlns="http://www.w3.org/2000/svg">
<rect width="1024" height="1024" rx="250" fill="url(#paint0_linear_1_2)"/>
<g filter="url(#filter0_d_1_2)">
<rect x="505.458" y="132.99" width="404.319" height="461.135" rx="99.3232" transform="rotate(15 505.458 132.99)" fill="url(#paint1_radial_1_2)" fill-opacity="0.25" shape-rendering="crispEdges"/>
</g>
<g filter="url(#filter1_d_1_2)">
<rect x="127.072" y="522.671" width="404.319" height="461.135" rx="99.3232" transform="rotate(-30 127.072 522.671)" fill="url(#paint2_radial_1_2)" fill-opacity="0.25" shape-rendering="crispEdges"/>
</g>
<foreignObject x="178.689" y="148.564" width="664.91" height="733.244"><div xmlns="http://www.w3.org/1999/xhtml" style="backdrop-filter:blur(44.66px);clip-path:url(#bgblur_0_1_2_clip_path);height:100%;width:100%"></div></foreignObject><g filter="url(#filter2_d_1_2)" data-figma-bg-blur-radius="89.3115">
<path d="M268 337.198C268 282.344 312.469 237.875 367.323 237.875H654.964C709.818 237.875 754.287 282.344 754.287 337.198V693.173C754.287 748.027 709.818 792.496 654.963 792.496H367.323C312.468 792.496 268 748.028 268 693.173V337.198Z" fill="white"/>
<path d="M367.323 239.861H654.964C708.721 239.862 752.3 283.441 752.3 337.198V693.173C752.3 746.93 708.721 790.51 654.964 790.51H367.323C313.566 790.51 269.986 746.93 269.986 693.173V337.198C269.986 283.441 313.566 239.861 367.323 239.861Z" stroke="white" stroke-opacity="0.15" stroke-width="3.97293"/>
</g>
<path d="M604.11 438.728C614.971 427.867 632.58 427.867 643.44 438.728C654.301 449.589 654.301 467.197 643.44 478.058L498.87 622.628C484.913 636.585 462.284 636.585 448.327 622.628L378.665 552.966C367.804 542.105 367.804 524.497 378.664 513.636C389.525 502.776 407.134 502.776 417.995 513.636L473.598 569.24L604.11 438.728Z" fill="#5A5AFF"/>
<defs>
<filter id="filter0_d_1_2" x="344.838" y="94.8989" width="592.431" height="632.606" filterUnits="userSpaceOnUse" color-interpolation-filters="sRGB">
<feFlood flood-opacity="0" result="BackgroundImageFix"/>
<feColorMatrix in="SourceAlpha" type="matrix" values="0 0 0 0 0 0 0 0 0 0 0 0 0 0 0 0 0 0 127 0" result="hardAlpha"/>
<feOffset dy="3.17834"/>
<feGaussianBlur stdDeviation="31.7834"/>
<feComposite in2="hardAlpha" operator="out"/>
<feColorMatrix type="matrix" values="0 0 0 0 0 0 0 0 0 0 0 0 0 0 0 0 0 0 0.12 0"/>
<feBlend mode="normal" in2="BackgroundImageFix" result="effect1_dropShadow_1_2"/>
<feBlend mode="normal" in="SourceGraphic" in2="effect1_dropShadow_1_2" result="shape"/>
</filter>
<filter id="filter1_d_1_2" x="99.8438" y="296.462" width="635.175" height="655.971" filterUnits="userSpaceOnUse" color-interpolation-filters="sRGB">
<feFlood flood-opacity="0" result="BackgroundImageFix"/>
<feColorMatrix in="SourceAlpha" type="matrix" values="0 0 0 0 0 0 0 0 0 0 0 0 0 0 0 0 0 0 127 0" result="hardAlpha"/>
<feOffset dy="3.17834"/>
<feGaussianBlur stdDeviation="31.7834"/>
<feComposite in2="hardAlpha" operator="out"/>
<feColorMatrix type="matrix" values="0 0 0 0 0 0 0 0 0 0 0 0 0 0 0 0 0 0 0.12 0"/>
<feBlend mode="normal" in2="BackgroundImageFix" result="effect1_dropShadow_1_2"/>
<feBlend mode="normal" in="SourceGraphic" in2="effect1_dropShadow_1_2" result="shape"/>
</filter>
<filter id="filter2_d_1_2" x="178.689" y="148.564" width="664.91" height="733.244" filterUnits="userSpaceOnUse" color-interpolation-filters="sRGB">
<feFlood flood-opacity="0" result="BackgroundImageFix"/>
<feColorMatrix in="SourceAlpha" type="matrix" values="0 0 0 0 0 0 0 0 0 0 0 0 0 0 0 0 0 0 127 0" result="hardAlpha"/>
<feOffset dy="3.17834"/>
<feGaussianBlur stdDeviation="31.7834"/>
<feComposite in2="hardAlpha" operator="out"/>
<feColorMatrix type="matrix" values="0 0 0 0 0 0 0 0 0 0 0 0 0 0 0 0 0 0 0.12 0"/>
<feBlend mode="normal" in2="BackgroundImageFix" result="effect1_dropShadow_1_2"/>
<feBlend mode="normal" in="SourceGraphic" in2="effect1_dropShadow_1_2" result="shape"/>
</filter>
<clipPath id="bgblur_0_1_2_clip_path" transform="translate(-178.689 -148.564)"><path d="M268 337.198C268 282.344 312.469 237.875 367.323 237.875H654.964C709.818 237.875 754.287 282.344 754.287 337.198V693.173C754.287 748.027 709.818 792.496 654.963 792.496H367.323C312.468 792.496 268 748.028 268 693.173V337.198Z"/>
</clipPath><linearGradient id="paint0_linear_1_2" x1="512" y1="0" x2="512" y2="1024" gradientUnits="userSpaceOnUse">
<stop stop-color="#2A81FF"/>
<stop offset="1" stop-color="#5A5AFF"/>
</linearGradient>
<radialGradient id="paint1_radial_1_2" cx="0" cy="0" r="1" gradientUnits="userSpaceOnUse" gradientTransform="translate(707.617 363.557) rotate(90) scale(230.567 202.159)">
<stop stop-color="white" stop-opacity="0"/>
<stop offset="1" stop-color="white"/>
</radialGradient>
<radialGradient id="paint2_radial_1_2" cx="0" cy="0" r="1" gradientUnits="userSpaceOnUse" gradientTransform="translate(329.232 753.239) rotate(90) scale(230.567 202.159)">
<stop stop-color="white" stop-opacity="0"/>
<stop offset="1" stop-color="white"/>
</radialGradient>
</defs>
</svg>
